<?xml version="1.0" encoding="UTF-8"?>
<svg id="_图层_1" data-name="图层 1" xmlns="http://www.w3.org/2000/svg" viewBox="0 0 31.86 31.86">
  <defs>
    <style>
      .cls-1 {
        fill: gray;
      }
    </style>
  </defs>
  <path class="cls-1" d="M20.9,24.55H7.3v-13.6c0-2.01-1.64-3.65-3.65-3.65s-3.65,1.64-3.65,3.65v17.25c0,2.01,1.64,3.65,3.65,3.65h17.25c2.01,0,3.65-1.64,3.65-3.65s-1.64-3.65-3.65-3.65Z"/>
  <path class="cls-1" d="M28.2,0H10.95c-2.01,0-3.65,1.64-3.65,3.65s1.64,3.65,3.65,3.65h13.6v13.6c0,2.01,1.64,3.65,3.65,3.65s3.65-1.64,3.65-3.65V3.65c0-2.01-1.64-3.65-3.65-3.65Z"/>
</svg>